# xmcd
#
# Track frame offsets:
#	150
#	20200
#	36347
#	55892
#	75295
#	100972
#	115492
#	130075
#	145072
#	165340
#	188225
#	205230
#	223132
#	244165
#	261342
#	277802
#	293647
#	311057
#
# Disc length: 4361 seconds
#
# Revision: 1
# Processed by: cddbd v1.5.2PL0 Copyright (c) Steve Scherf et al.
# Submitted via: audiograbber 1.83.01
#
DISCID=0b110712
DTITLE=Sampler - Country - Everlasting Pure Country Love
DYEAR=1900
DGENRE=Country
TTITLE0=Mark Chessnut - I Don't Want to Miss A Thing
TTITLE1=Shania Twain - You're Still The One
TTITLE2=John Michael Montgomery - I Swear
TTITLE3=Trisha Yerarwood - How Do I Live
TTITLE4=Bob Carlisle - Butterfly Kiss
TTITLE5=Martina McBride and Jim Brickman - Valentine
TTITLE6=Mark Wills - IDo (Cherish You)
TTITLE7=Faith Hill - This Kiss
TTITLE8=Vince Gill - If You Ever Have Forever In Mind
TTITLE9=Paula Cole - I Don't Want to Wait
TTITLE10=Tim McCraw - It's Your Love
TTITLE11=Garth Brooks - To Make You Feel My Love
TTITLE12=Shania Twain - From This Moment
TTITLE13=Alan Jackson - Livin' On Love
TTITLE14=LeAnn Rimes - You Light Up My Life
TTITLE15=Aaron Tippin - For You I Will
TTITLE16=John Michael Montgemery - Cover You In Kisses
TTITLE17=David Kersh - I Never Stop Loving You
EXTD=
EXTT0=
EXTT1=
EXTT2=
EXTT3=
EXTT4=
EXTT5=
EXTT6=
EXTT7=
EXTT8=
EXTT9=
EXTT10=
EXTT11=
EXTT12=
EXTT13=
EXTT14=
EXTT15=
EXTT16=
EXTT17=
PLAYORDER=
